# xmcd
#
# Track frame offsets:
#  150
#  13302
#  32177
#  49420
#  66833
#  91625
#  108944
#  144918
#  162226
#  174108
#  211319
#  227435
#  251561
#
# Disc length: 3707 seconds
#
# Revision: 0
# Processed by: cddbd v1.5.1PL0 Copyright (c) Steve Scherf et al.
# Submitted via: AltoMP3_Maker 3.0
#
DISCID=a30e790d
DTITLE=Nickel Creek - Live at the Paramount Theater
DYEAR=1900
DGENRE=
TTITLE0=Starve them to Death
TTITLE1=Ferdinand the Bull
TTITLE2=Green and Grey
TTITLE3=Reasons Why
TTITLE4=Ode to a Butterfly (Lithium)
TTITLE5=This Side
TTITLE6=Jacksmith (Encore)
TTITLE7=Doubting Thomas
TTITLE8=Where It's At
TTITLE9=The Fox (Drone Encoure)
TTITLE10=Sweethearts On Parade
TTITLE11=Blue Yodel #5
TTITLE12=The Lighthouse's Tale
EXTD=
EXTT0=
EXTT1=
EXTT2=
EXTT3=
EXTT4=
EXTT5=
EXTT6=
EXTT7=
EXTT8=
EXTT9=
EXTT10=
EXTT11=
EXTT12=
PLAYORDER=
